{"asset":{"version":"2.0","generator":"Icon Studio safe fixture"},"scene":0,"scenes":[{"nodes":[0]}],"nodes":[{"name":"Creature","mesh":0}],"meshes":[{"name":"CreatureMesh","primitives":[{"attributes":{"POSITION":0},"indices":1,"material":0}]}],"buffers":[{"byteLength":672,"uri":"data:application/octet-stream;base64,"}],"bufferViews":[{"buffer":0,"byteOffset":0,"byteLength":384,"target":34962},{"buffer":0,"byteOffset":384,"byteLength":288,"target":34963}],"accessors":[{"bufferView":0,"componentType":5126,"count":32,"type":"VEC3","min":[-0.525,-0.475,-0.36],"max":[0.525,1.41,0.36]},{"bufferView":1,"componentType":5123,"count":144,"type":"SCALAR"}],"materials":[{"name":"CreatureMaterial","pbrMetallicRoughness":{"baseColorFactor":[0.28,0.58,0.36,1.0],"metallicFactor":0.35,"roughnessFactor":0.38}}]}
