{"asset":{"version":"2.0","generator":"Icon Forge safe fixture"},"scene":0,"scenes":[{"nodes":[0]}],"nodes":[{"name":"Helmet","mesh":0}],"meshes":[{"name":"HelmetMesh","primitives":[{"attributes":{"POSITION":0},"indices":1,"material":0}]}],"buffers":[{"byteLength":504,"uri":"data:application/octet-stream;base64,"}],"bufferViews":[{"buffer":0,"byteOffset":0,"byteLength":288,"target":34962},{"buffer":0,"byteOffset":288,"byteLength":216,"target":34963}],"accessors":[{"bufferView":0,"componentType":5126,"count":24,"type":"VEC3","min":[-0.51,-0.3,-0.39],"max":[0.51,0.97,0.39]},{"bufferView":1,"componentType":5123,"count":108,"type":"SCALAR"}],"materials":[{"name":"HelmetMaterial","pbrMetallicRoughness":{"baseColorFactor":[0.55,0.42,0.22,1.0],"metallicFactor":0.35,"roughnessFactor":0.38}}]}
