{"asset":{"version":"2.0","generator":"Icon Forge safe fixture"},"scene":0,"scenes":[{"nodes":[0]}],"nodes":[{"name":"Shield","mesh":0}],"meshes":[{"name":"ShieldMesh","primitives":[{"attributes":{"POSITION":0},"indices":1,"material":0}]}],"buffers":[{"byteLength":336,"uri":"data:application/octet-stream;base64,"}],"bufferViews":[{"buffer":0,"byteOffset":0,"byteLength":192,"target":34962},{"buffer":0,"byteOffset":192,"byteLength":144,"target":34963}],"accessors":[{"bufferView":0,"componentType":5126,"count":16,"type":"VEC3","min":[-0.46,-0.6599999999999999,-0.12],"max":[0.46,0.6000000000000001,0.12]},{"bufferView":1,"componentType":5123,"count":72,"type":"SCALAR"}],"materials":[{"name":"ShieldMaterial","pbrMetallicRoughness":{"baseColorFactor":[0.18,0.38,0.72,1.0],"metallicFactor":0.35,"roughnessFactor":0.38}}]}
